<svg id="Layer_1" data-name="Layer 1" xmlns="http://www.w3.org/2000/svg" viewBox="0 0 23.92 24"><defs><style>.cls-1,.cls-2{fill:#009dab;}.cls-1{opacity:0.5;isolation:isolate;}</style></defs><title>Untitled-2</title><path class="cls-1" d="M15.73,8.3a1.37,1.37,0,0,1-.06-1.94l0.06-.06a1.44,1.44,0,0,1,2,0,1.36,1.36,0,0,1,.08,1.92l-0.08.08a1.42,1.42,0,0,1-1,.41,1.44,1.44,0,0,1-1-.4m-9.54,0a1.37,1.37,0,0,1-.06-1.94l0.06-.06a1.44,1.44,0,0,1,2,0,1.37,1.37,0,0,1,.06,1.94l-0.06.06h0a1.42,1.42,0,0,1-1,.41,1.44,1.44,0,0,1-1-.4m9.57,9.31a1.36,1.36,0,0,1-.08-1.92l0.08-.08a1.44,1.44,0,0,1,2,0,1.37,1.37,0,0,1,.06,1.94l-0.06.06h0a1.44,1.44,0,0,1-2,0m-9.54,0a1.36,1.36,0,0,1-.08-1.92l0.08-.08a1.43,1.43,0,0,1,2,0,1.36,1.36,0,0,1,.08,1.92l-0.08.08a1.44,1.44,0,0,1-2,0" transform="translate(-0.04 0)"/><path class="cls-2" d="M12,24A12,12,0,1,1,19,2.21a0.71,0.71,0,0,1-.82,1.15,10.58,10.58,0,1,0,2.7,2.78A0.71,0.71,0,0,1,22,5.36a12.07,12.07,0,0,1-.22,13.58A11.93,11.93,0,0,1,14,23.83,12.18,12.18,0,0,1,12,24Z" transform="translate(-0.04 0)"/><path class="cls-2" d="M17.25,12a1.37,1.37,0,0,1,1.35-1.39h0A1.44,1.44,0,0,1,20.06,12a1.37,1.37,0,0,1-1.35,1.39h0A1.44,1.44,0,0,1,17.25,12M10.49,5.28a1.37,1.37,0,0,1,1.35-1.39h0A1.44,1.44,0,0,1,13.3,5.3a1.37,1.37,0,0,1-1.35,1.39h0a1.42,1.42,0,0,1-1-.42,1.44,1.44,0,0,1-.42-1m0.18,13.35A1.36,1.36,0,0,1,12,17.23h0.05a1.44,1.44,0,0,1,1.43,1.41A1.37,1.37,0,0,1,12.15,20H12.1a1.44,1.44,0,0,1-1.42-1.41M3.9,12a1.36,1.36,0,0,1,1.28-1.44h0.1A1.43,1.43,0,0,1,6.7,12h0a1.37,1.37,0,0,1-1.34,1.4h0A1.43,1.43,0,0,1,3.9,12" transform="translate(-0.04 0)"/></svg>